<svg width="152" height="46" viewBox="0 0 152 46" fill="none" xmlns="http://www.w3.org/2000/svg">
<path fill-rule="evenodd" clip-rule="evenodd" d="M20.4828 9.01693C15.2573 9.71216 10.8662 13.1934 9.0254 18.1003C8.4689 19.5839 8.22282 20.8491 8.16654 22.517C8.08492 24.9364 8.53187 27.0651 9.57226 29.2123C10.2239 30.5572 11.425 32.242 11.7326 32.2425C12.0024 32.243 11.9843 32.1519 11.6287 31.719C10.4125 30.2388 9.37071 28.1783 8.93271 26.3871C7.99712 22.5607 8.6709 18.6343 10.8103 15.4462C12.9908 12.1968 16.144 10.1613 20.1066 9.4451C21.1034 9.26491 23.5485 9.26491 24.5453 9.4451C28.4695 10.1543 31.6766 12.213 33.8324 15.4065C34.698 16.6888 35.5155 18.5972 35.8115 20.0271C35.8818 20.3666 35.9571 20.6434 35.9788 20.6421C36.0005 20.6408 36.0821 20.5917 36.16 20.533C36.2981 20.429 36.2965 20.4054 36.0994 19.6229C34.343 12.6513 27.5979 8.07036 20.4828 9.01693ZM20.3269 9.75481C17.1661 10.2665 14.2925 11.8147 12.2675 14.097C7.88307 19.0389 7.70958 26.3217 11.8544 31.4409C12.1494 31.8053 12.428 32.0823 12.4796 32.0626C12.5308 32.0431 12.6936 32.0046 12.8413 31.977C12.9891 31.9494 13.11 31.9126 13.11 31.8952C13.11 31.8777 12.8934 31.611 12.6287 31.3025C12.17 30.7677 11.3796 29.686 11.3796 29.5929C11.3796 29.5688 11.4897 29.5501 11.6242 29.5515C11.8443 29.5538 11.9076 29.6117 12.2584 30.1315C12.4728 30.449 12.879 30.9503 13.1612 31.2454L13.6742 31.7819L14.7112 31.4698L15.7482 31.1578L14.9933 31.1365L14.2385 31.1152V29.8096V28.5042L12.4967 28.4841L10.7549 28.464L10.5055 27.8827C10.3684 27.5629 10.2061 27.1336 10.1449 26.9286L10.0336 26.5559H10.2571C10.4208 26.5559 10.4967 26.6009 10.541 26.7242C10.5741 26.8169 10.6953 27.1536 10.8101 27.4725L11.0188 28.0524H12.6286H14.2385V27.7451C14.2385 27.4956 14.2609 27.4463 14.3575 27.4832C14.423 27.5082 14.5076 27.5286 14.5456 27.5286C14.5853 27.5286 14.6146 28.1957 14.6146 29.1V30.6714L15.9124 30.671L17.2102 30.6705L18.3305 30.2572C18.9467 30.0299 19.4965 29.8185 19.5522 29.7874C19.6238 29.7476 19.5075 29.6219 19.1562 29.3594C18.537 28.8967 17.8361 28.1422 17.396 27.4641L17.0597 26.946L15.8011 26.9193C14.5729 26.8933 14.5381 26.888 14.3628 26.7055C14.1115 26.4437 13.5055 24.6405 13.6122 24.472C13.6787 24.3671 13.8716 24.3454 14.893 24.328L16.0956 24.3074L16.0887 23.2429C16.0848 22.6575 16.1086 22.0522 16.1416 21.8978L16.2014 21.6172H14.5391C12.7918 21.6172 12.5229 21.573 12.3962 21.2646C12.2037 20.7962 11.7558 19.3891 11.7558 19.253C11.7558 19.1628 11.8094 19.0687 11.8748 19.0437C11.9403 19.0187 13.1542 18.9982 14.5725 18.9982H17.1513L17.4162 18.6014C18.6305 16.7823 20.5728 15.5181 22.7308 15.1422C23.9754 14.9254 25.4567 15.038 26.64 15.4394C27.7688 15.8223 29.4651 16.8496 29.6592 17.2677C29.7246 17.4087 29.715 17.4855 29.6125 17.6411C29.3735 18.0039 28.0597 19.2976 27.9303 19.2976C27.8597 19.2976 27.6531 19.1845 27.4711 19.0464C26.1676 18.0563 24.6889 17.681 23.2664 17.9792C22.3191 18.1778 21.5262 18.6189 20.7762 19.3649C19.8438 20.2922 19.3714 21.3001 19.2381 22.6467C19.146 23.5767 19.448 24.8431 19.9696 25.7133C20.3024 26.2685 21.0913 27.0581 21.6496 27.3947C22.1513 27.6972 23.1392 28.0535 23.4677 28.0505C23.5845 28.0494 24.408 27.6872 25.2977 27.2456L26.9152 26.4426V26.069V25.6954L25.6591 25.6749C24.1451 25.6502 24.2515 25.7275 23.7816 24.3113C23.5129 23.5013 23.4785 23.3324 23.562 23.2324C23.6492 23.1278 24.0107 23.1138 26.6181 23.1138C29.2061 23.1138 29.5899 23.1285 29.6934 23.2313C29.785 23.3224 29.8116 23.5161 29.8116 24.0898V24.8307L30.6692 24.3156C31.6792 23.7088 33.4228 22.5877 33.4228 22.545C33.4228 22.5286 32.7626 22.5152 31.9557 22.5152H30.4887L30.4884 22.8706L30.4882 23.226L30.344 22.991C30.2648 22.8618 30.1634 22.7335 30.1186 22.706C30.0633 22.672 30.0373 21.951 30.0373 20.4527C30.0373 18.3924 30.0471 18.2313 30.1878 17.9702C30.2705 17.8166 30.3382 17.5714 30.3382 17.4251C30.3382 17.2788 30.2705 17.0271 30.1878 16.8656C30.0731 16.6421 30.0373 16.4244 30.0373 15.9519V15.3317H29.0795C28.2811 15.3317 28.059 15.3058 27.7441 15.1762L27.3665 15.0207L27.3898 14.1286L27.413 13.2365H26.6563H25.8995V12.2303V11.2242L25.1472 11.0555C24.4129 10.8908 24.3949 10.8816 24.3949 10.6764C24.3949 10.471 24.4024 10.4672 24.7146 10.516C24.8904 10.5435 25.3052 10.6388 25.6362 10.7278L26.2381 10.8896L26.2591 11.876L26.28 12.8623H27.0302H27.7803V13.9099V14.9575H29.1345H30.4887V16.267V17.5765H32.2102C33.7843 17.5765 33.9353 17.5877 33.9723 17.7075C33.9945 17.7795 34.115 18.0813 34.24 18.3781C34.3651 18.675 34.501 19.039 34.5421 19.187C34.6167 19.4557 34.6166 19.456 34.3876 19.4329C34.1762 19.4116 34.1424 19.366 33.9521 18.8455C33.5891 17.8526 33.7999 17.9507 32.0283 17.9507H30.4887V18.5119V19.0731H31.5043H32.52V19.8214V20.5696H32.9249C33.2814 20.5696 33.3354 20.5898 33.3754 20.738C33.4003 20.8306 33.4212 20.9317 33.4217 20.9625C33.4223 20.9933 33.135 21.0186 32.7833 21.0186H32.1438V20.2329V19.4472H31.3163H30.4887V20.7567V22.0662L32.3131 22.0649L34.1375 22.0637L34.871 21.5276C35.7314 20.8987 35.7084 20.9806 35.3805 19.7158C34.225 15.2585 30.9549 11.7553 26.6142 10.3246C25.0553 9.81086 24.4204 9.70879 22.5893 9.67781C21.4449 9.65843 20.7832 9.68095 20.3269 9.75481ZM21.7617 12.5256C21.7617 13.8163 21.7331 14.733 21.6927 14.733C21.6547 14.733 21.57 14.7535 21.5046 14.7785C21.3977 14.8192 21.3856 14.5946 21.3856 12.571V10.3182H21.5736H21.7617V12.5256ZM23.2664 10.5427C23.2664 10.7322 23.2371 10.7672 23.0783 10.7672C22.9195 10.7672 22.8902 10.7322 22.8902 10.5427C22.8902 10.3531 22.9195 10.3182 23.0783 10.3182C23.2371 10.3182 23.2664 10.3531 23.2664 10.5427ZM20.2571 10.6836C20.2571 10.8543 20.2178 10.9069 20.069 10.9351C19.9049 10.9664 19.8809 10.9444 19.8809 10.763C19.8809 10.6487 19.9233 10.5382 19.975 10.5174C20.1855 10.4329 20.2571 10.4752 20.2571 10.6836ZM18.7524 11.0528C18.7524 11.2434 18.7117 11.2764 18.3283 11.3966C18.095 11.4697 17.7565 11.5925 17.576 11.6695L17.2478 11.8094V13.3834V14.9575H17.812H18.3763V13.9099V12.8623H19.1286H19.8809V12.4595C19.8809 12.0892 19.8961 12.0538 20.069 12.0209L20.2571 11.9851V12.6081V13.2311L19.5236 13.2525L18.79 13.2739L18.7688 14.1157L18.7475 14.9575L19.822 14.9637L20.8966 14.97L20.5204 15.1462C20.1472 15.321 20.122 15.3225 17.3794 15.3271L14.6146 15.3317V16.8282V18.3248H14.4318C14.2994 18.3248 14.2423 18.2783 14.2249 18.1564C14.2016 17.9935 14.1742 17.9881 13.3733 17.9881C12.5724 17.9881 12.545 17.9935 12.5217 18.1564C12.5043 18.2783 12.4472 18.3248 12.3148 18.3248C12.1456 18.3248 12.132 18.297 12.132 17.9507V17.5765H13.1852H14.2385V16.267V14.9575H15.5537H16.8688L16.8891 13.2178L16.9092 11.478L17.6992 11.1614C18.6526 10.7791 18.7524 10.7688 18.7524 11.0528ZM37.2972 11.2682C36.194 11.3668 33.0917 11.8947 32.9836 12.0022C32.9555 12.0301 33.5443 12.7263 34.5247 13.8243L34.8156 14.1501L35.3793 14.0661C36.3011 13.9286 38.2303 13.7607 38.8905 13.7605C40.2293 13.7601 41.3102 14.0428 41.5893 14.4665C41.6886 14.6173 41.7096 14.7634 41.6795 15.0944C41.5362 16.6659 39.0195 19.4631 35.2616 22.2274C30.5643 25.6828 23.8243 29.1745 17.6053 31.3744C12.2326 33.2749 7.01383 34.0999 5.03108 33.362C4.47774 33.1561 4.30779 32.9354 4.30779 32.4226C4.30779 31.5238 5.10263 30.2602 6.67002 28.667L7.72184 27.5979L7.51134 26.1977C7.39564 25.4276 7.28362 24.7058 7.2624 24.5938L7.22396 24.3903L6.66739 24.8481C4.36866 26.7394 2.65727 28.6691 1.868 30.2599C1.21875 31.5684 1.08017 32.4397 1.37192 33.3792C1.80315 34.768 2.98874 35.6271 5.03665 36.0348C5.92604 36.2119 8.25148 36.2106 9.57407 36.0323C19.7488 34.6604 34.4924 27.5243 41.4372 20.6103C43.2355 18.82 44.286 17.2316 44.6484 15.7549C44.7911 15.1736 44.8011 15.0258 44.7306 14.5392C44.4793 12.8047 43.0518 11.6933 40.6075 11.3291C39.9216 11.2269 38.1284 11.1939 37.2972 11.2682ZM29.3226 12.3712C30.8049 13.3288 32.1695 14.7084 33.1576 16.2483L33.2896 16.4541L33.0364 16.4527C32.8171 16.4515 32.7513 16.4028 32.544 16.0874C31.5748 14.6126 29.9338 13.1489 28.1377 12.1571C27.6907 11.9102 27.6299 11.8505 27.6299 11.6577V11.4387L28.1753 11.7106C28.4753 11.8601 28.9916 12.1574 29.3226 12.3712ZM23.2664 12.3385V12.8623H24.0187H24.771V13.6376V14.413L24.5829 14.3772C24.4025 14.3429 24.3949 14.3189 24.3949 13.7889V13.2365H23.6425H22.8902V12.5256C22.8902 11.8172 22.8909 11.8148 23.0783 11.8148C23.261 11.8148 23.2664 11.8297 23.2664 12.3385ZM15.5811 12.7119C13.9204 13.7889 12.4178 15.4234 11.438 17.219C11.0857 17.8646 11.0179 17.9466 10.8342 17.9486C10.7205 17.9497 10.6273 17.9331 10.6273 17.9116C10.6273 17.8901 10.7668 17.5954 10.9373 17.2568C11.8988 15.3467 13.4009 13.6653 15.2541 12.4247L15.7055 12.1226L15.7304 12.3608C15.7496 12.5437 15.7149 12.6252 15.5811 12.7119ZM18.2258 16.6412C18.0552 16.8219 18.0161 16.8282 17.0842 16.8282H16.1193V17.5765V18.3248H15.9312H15.7431V17.3894V16.4541H17.0728H18.4025L18.2258 16.6412ZM11.0787 19.2601C11.0787 19.4276 11.0481 19.4472 10.7861 19.4472H10.4936L10.3708 19.9149C10.3032 20.1721 10.222 20.5173 10.1901 20.6819C10.1415 20.9342 10.1004 20.9849 9.92849 21.0048C9.77283 21.0229 9.72453 20.9964 9.72461 20.8926C9.72476 20.7349 10.0826 19.2375 10.1437 19.1392C10.1663 19.1029 10.3859 19.0731 10.6318 19.0731C11.0583 19.0731 11.0787 19.0816 11.0787 19.2601ZM28.984 20.9064V22.4403H28.7584H28.5327V21.094C28.5327 19.8178 28.5412 19.7379 28.6967 19.5601C28.7869 19.4568 28.8885 19.3724 28.9224 19.3724C28.9563 19.3724 28.984 20.0627 28.984 20.9064ZM34.9274 20.7941C34.9274 20.981 34.8972 21.0186 34.7474 21.0186C34.5732 21.0186 34.476 20.8957 34.476 20.6757C34.476 20.6077 34.557 20.5696 34.7017 20.5696C34.9024 20.5696 34.9274 20.5946 34.9274 20.7941ZM12.3765 22.0955C12.4489 22.1502 12.5081 22.267 12.5081 22.355C12.5081 22.5074 12.4735 22.5152 11.7934 22.5152H11.0787V22.294V22.0728L11.6242 22.047C11.9242 22.0328 12.1865 22.0155 12.2072 22.0087C12.2279 22.0018 12.304 22.0408 12.3765 22.0955ZM9.9959 22.1846C9.97077 22.2497 9.95023 22.3507 9.95023 22.4091C9.95023 22.4724 9.87432 22.5152 9.76215 22.5152C9.60333 22.5152 9.57407 22.4802 9.57407 22.2907C9.57407 22.0894 9.59822 22.0662 9.80781 22.0662C9.99003 22.0662 10.0315 22.0923 9.9959 22.1846ZM14.6146 22.9168V23.6179L14.06 23.6533C13.6532 23.6793 13.4444 23.7318 13.2772 23.8503C13.0594 24.0045 12.971 24.0117 11.3116 24.0117H9.57407V23.7872V23.5628H11.9063H14.2385V22.8893C14.2385 22.2209 14.2399 22.2159 14.4266 22.2159C14.6138 22.2159 14.6146 22.219 14.6146 22.9168ZM10.1627 25.3081C10.1848 25.5002 10.1678 25.5171 9.97461 25.4951C9.80466 25.4757 9.75726 25.4286 9.73777 25.2596C9.71565 25.0674 9.73266 25.0505 9.92585 25.0725C10.0958 25.0919 10.1432 25.139 10.1627 25.3081ZM12.5081 25.8076V26.5559H13.0183C13.516 26.5559 13.5305 26.5613 13.6136 26.7804L13.6988 27.0049H12.9154H12.132V26.2566V25.5083H11.7182C11.4112 25.5083 11.3044 25.4809 11.3044 25.4022C11.3044 25.3438 11.2839 25.2428 11.2587 25.1777C11.2193 25.0754 11.301 25.0593 11.8606 25.0593H12.5081V25.8076ZM35.9589 26.047C35.8281 26.1657 35.7105 26.4286 35.5799 26.8943C34.4236 31.0172 31.0065 34.5707 26.8067 36.0178C26.3746 36.1667 25.596 36.3785 25.0763 36.4886C24.2086 36.6723 23.9874 36.689 22.3636 36.6919C20.8082 36.6946 20.4929 36.6743 19.7408 36.5228C18.7196 36.3171 17.914 36.0727 16.9421 35.6739C16.3108 35.4149 16.1956 35.389 16.0017 35.4633L15.7807 35.5479L16.0746 35.699C16.657 35.9985 17.9021 36.4525 18.7141 36.6616C19.9419 36.9776 20.9892 37.1066 22.326 37.1066C23.6626 37.1066 24.7103 36.9776 25.9371 36.6616C30.514 35.4831 34.199 32.0775 35.7383 27.6035C36.0606 26.6667 36.2449 25.9706 36.1859 25.912C36.1654 25.8915 36.0632 25.9522 35.9589 26.047ZM34.2383 27.1419C33.6731 27.4986 33.0552 27.8823 32.8653 27.9945C32.6362 28.1297 32.52 28.2494 32.52 28.3499C32.52 28.4711 32.4708 28.5014 32.2745 28.5014C32.1037 28.5014 31.5947 28.7403 30.6006 29.287C29.8149 29.719 28.5204 30.3962 27.7239 30.7917L26.2757 31.511V32.3633V33.2156H25.5273H24.7789L24.7561 33.6084C24.7363 33.9507 24.7116 34.0043 24.5641 34.0252C24.3999 34.0484 24.3949 34.0301 24.3949 33.4079V32.7666H25.1472H25.8995V32.2428C25.8995 31.9547 25.8845 31.719 25.8661 31.719C25.8478 31.719 25.2637 31.971 24.5684 32.2789L23.304 32.8388L23.2835 34.2398C23.2628 35.6459 23.2413 35.7555 22.9843 35.7586C22.9124 35.7594 22.8902 35.4345 22.8902 34.3802V33.0006L22.326 33.2349L21.7617 33.4691V33.8741C21.7617 34.2127 21.7422 34.2717 21.6427 34.2338C21.5773 34.2088 21.4926 34.1883 21.4546 34.1883C21.4166 34.1883 21.3856 34.0594 21.3856 33.9018V33.6154L20.0667 34.1053C19.1126 34.4597 18.7536 34.6256 18.7691 34.7052C18.7881 34.8037 19.063 34.892 20.0502 35.1168C20.2171 35.1548 20.2571 35.2056 20.2571 35.3796V35.5953L19.6208 35.457C18.4661 35.206 18.3763 35.167 18.3763 34.9168C18.3763 34.7713 18.3442 34.7082 18.2822 34.7314C18.2305 34.7508 17.892 34.8624 17.5299 34.9794C17.1679 35.0962 16.8716 35.2142 16.8716 35.2414C16.8716 35.3078 17.9599 35.7094 18.7547 35.9363C20.3826 36.401 22.778 36.5368 24.4325 36.2583C27.3646 35.7647 29.8612 34.4776 31.9181 32.3991C32.9545 31.3518 33.6268 30.4338 34.2791 29.1749C34.7479 28.2703 35.3313 26.7715 35.2874 26.5845C35.2748 26.5308 34.8431 26.7601 34.2383 27.1419ZM16.1193 28.3518V29.1749H17.0456H17.972L18.1882 29.3993L18.4044 29.6238H17.0738H15.7431V28.5762V27.5286H15.9312H16.1193V28.3518ZM33.7279 28.7855C32.8021 30.5781 31.3809 32.2251 29.7627 33.3805C28.9746 33.9431 28.9088 33.9662 28.9088 33.6788C28.9088 33.4799 28.9841 33.4004 29.5295 33.0231C30.4615 32.3784 31.9304 30.874 32.5699 29.9095C32.8613 29.4699 33.2147 28.8731 33.3553 28.5832C33.5946 28.0897 33.6266 28.0561 33.8587 28.0543L34.1065 28.0524L33.7279 28.7855ZM30.4887 30.3347V31.1204L29.1533 31.1161L27.8179 31.1116L28.381 30.8916C28.8209 30.7195 29.0634 30.6714 29.4907 30.6714H30.0373V30.3837C30.0373 30.1923 30.087 30.0513 30.1858 29.9623C30.2675 29.8887 30.3545 29.7657 30.379 29.6888C30.4653 29.4184 30.4887 29.5563 30.4887 30.3347ZM27.7803 32.8345V34.5485L27.2349 34.7725C26.7223 34.9829 26.0124 35.2359 25.9345 35.2359C25.9152 35.2359 25.8995 35.1372 25.8995 35.0165C25.8995 34.8539 25.9435 34.7838 26.0688 34.7459C26.1619 34.7178 26.5005 34.5952 26.8211 34.4735L27.4042 34.2523V32.73C27.4042 31.5822 27.4273 31.1984 27.4982 31.1699C27.7769 31.0581 27.7803 31.0785 27.7803 32.8345ZM24.771 35.302C24.771 35.4728 24.7318 35.5253 24.5829 35.5536C24.4189 35.5848 24.3949 35.5629 24.3949 35.3815C24.3949 35.2671 24.4372 35.1566 24.4889 35.1358C24.6994 35.0513 24.771 35.0936 24.771 35.302ZM21.7617 35.5353C21.7617 35.6587 21.7307 35.7597 21.6927 35.7597C21.5083 35.7597 21.3856 35.6518 21.3856 35.4898C21.3856 35.3487 21.4254 35.3108 21.5736 35.3108C21.7325 35.3108 21.7617 35.3457 21.7617 35.5353Z" fill="white"/>
<path d="M59.654 23.4118H61.9029V28.4066C61.2447 28.9199 60.4767 29.3137 59.5991 29.5882C58.7215 29.8627 57.8195 30 56.8931 30C55.5888 30 54.4125 29.7255 53.3643 29.1765C52.316 28.6155 51.4932 27.8457 50.8959 26.867C50.2986 25.8883 50 24.7843 50 23.555C50 22.3257 50.2986 21.2217 50.8959 20.243C51.4932 19.2643 52.316 18.5004 53.3643 17.9514C54.4247 17.3905 55.6132 17.11 56.9296 17.11C58.0023 17.11 58.9774 17.283 59.8551 17.6292C60.7327 17.9753 61.4702 18.4825 62.0674 19.1509L60.5682 20.5831C59.593 19.6283 58.4167 19.1509 57.0393 19.1509C56.1373 19.1509 55.3328 19.3359 54.6259 19.7059C53.9311 20.0759 53.3825 20.5951 52.9803 21.2634C52.5902 21.9318 52.3952 22.6957 52.3952 23.555C52.3952 24.3905 52.5902 25.1424 52.9803 25.8107C53.3825 26.4791 53.9311 27.0043 54.6259 27.3862C55.3328 27.7681 56.1312 27.9591 57.0211 27.9591C58.0206 27.9591 58.8982 27.7442 59.654 27.3146V23.4118Z" fill="white"/>
<path d="M68.5484 20.1535C69.9867 20.1535 71.0838 20.4936 71.8395 21.1739C72.6075 21.8423 72.9914 22.8568 72.9914 24.2174V29.821H70.8339V28.6573C70.5535 29.075 70.1513 29.3973 69.6272 29.624C69.1152 29.8389 68.4936 29.9463 67.7622 29.9463C67.0308 29.9463 66.3909 29.8269 65.8424 29.5882C65.2939 29.3376 64.8672 28.9974 64.5625 28.5678C64.2699 28.1262 64.1237 27.6309 64.1237 27.0818C64.1237 26.2225 64.4467 25.5362 65.0927 25.023C65.751 24.4979 66.781 24.2353 68.1827 24.2353H70.7059V24.0921C70.7059 23.4237 70.4987 22.9105 70.0843 22.5524C69.682 22.1944 69.0786 22.0153 68.2741 22.0153C67.7256 22.0153 67.1832 22.0989 66.6469 22.266C66.1227 22.4331 65.6778 22.6658 65.3121 22.9642L64.4162 21.335C64.9282 20.9531 65.5437 20.6607 66.2629 20.4578C66.9821 20.2549 67.7439 20.1535 68.5484 20.1535ZM68.2376 28.3171C68.8105 28.3171 69.3163 28.1918 69.7551 27.9412C70.2062 27.6786 70.5231 27.3086 70.7059 26.8312V25.7212H68.3473C67.0308 25.7212 66.3726 26.1449 66.3726 26.9923C66.3726 27.3981 66.5372 27.7204 66.8663 27.9591C67.1954 28.1978 67.6525 28.3171 68.2376 28.3171Z" fill="white"/>
<path d="M81.7937 29.3018C81.5256 29.5166 81.1965 29.6777 80.8064 29.7852C80.4285 29.8926 80.0263 29.9463 79.5997 29.9463C78.527 29.9463 77.6981 29.6718 77.113 29.1228C76.5279 28.5737 76.2354 27.7741 76.2354 26.7238V22.1228H74.6264V20.3325H76.2354V18.1483H78.5209V20.3325H81.1355V22.1228H78.5209V26.6701C78.5209 27.1355 78.6367 27.4936 78.8683 27.7442C79.0999 27.9829 79.4351 28.1023 79.8739 28.1023C80.3859 28.1023 80.8125 27.971 81.1538 27.7084L81.7937 29.3018Z" fill="white"/>
<path d="M87.7406 29.9463C86.7533 29.9463 85.8634 29.7374 85.0711 29.3197C84.2788 28.902 83.6572 28.3231 83.2062 27.5831C82.7674 26.8312 82.5479 25.9838 82.5479 25.0409C82.5479 24.098 82.7674 23.2566 83.2062 22.5166C83.6572 21.7766 84.2788 21.1978 85.0711 20.7801C85.8634 20.3623 86.7533 20.1535 87.7406 20.1535C88.7401 20.1535 89.6361 20.3623 90.4284 20.7801C91.2207 21.1978 91.8362 21.7766 92.275 22.5166C92.726 23.2566 92.9515 24.098 92.9515 25.0409C92.9515 25.9838 92.726 26.8312 92.275 27.5831C91.8362 28.3231 91.2207 28.902 90.4284 29.3197C89.6361 29.7374 88.7401 29.9463 87.7406 29.9463ZM87.7406 28.0307C88.5817 28.0307 89.2765 27.7562 89.825 27.2072C90.3735 26.6581 90.6478 25.9361 90.6478 25.0409C90.6478 24.1458 90.3735 23.4237 89.825 22.8747C89.2765 22.3257 88.5817 22.0512 87.7406 22.0512C86.8995 22.0512 86.2047 22.3257 85.6562 22.8747C85.1199 23.4237 84.8517 24.1458 84.8517 25.0409C84.8517 25.9361 85.1199 26.6581 85.6562 27.2072C86.2047 27.7562 86.8995 28.0307 87.7406 28.0307Z" fill="white"/>
<path d="M106.334 30C105.042 30 103.871 29.7255 102.823 29.1765C101.787 28.6155 100.97 27.8457 100.373 26.867C99.7879 25.8883 99.4954 24.7843 99.4954 23.555C99.4954 22.3257 99.794 21.2217 100.391 20.243C100.989 19.2643 101.805 18.5004 102.841 17.9514C103.89 17.3905 105.06 17.11 106.352 17.11C107.4 17.11 108.357 17.289 109.222 17.6471C110.088 18.0051 110.819 18.5243 111.417 19.2046L109.881 20.6189C108.954 19.6402 107.815 19.1509 106.462 19.1509C105.584 19.1509 104.798 19.3419 104.103 19.7238C103.408 20.0938 102.866 20.613 102.476 21.2813C102.086 21.9497 101.891 22.7076 101.891 23.555C101.891 24.4024 102.086 25.1603 102.476 25.8286C102.866 26.497 103.408 27.0222 104.103 27.4041C104.798 27.7741 105.584 27.9591 106.462 27.9591C107.815 27.9591 108.954 27.4638 109.881 26.4731L111.417 27.9054C110.819 28.5857 110.082 29.1049 109.204 29.4629C108.339 29.821 107.382 30 106.334 30Z" fill="white"/>
<path d="M119.015 20.1535C120.246 20.1535 121.233 20.5055 121.977 21.2097C122.72 21.9139 123.092 22.9582 123.092 24.3427V29.821H120.807V24.6292C120.807 23.7937 120.605 23.1671 120.203 22.7494C119.801 22.3197 119.228 22.1049 118.484 22.1049C117.643 22.1049 116.979 22.3555 116.491 22.8568C116.004 23.3461 115.76 24.0563 115.76 24.9872V29.821H113.475V16.5371H115.76V21.3708C116.138 20.977 116.601 20.6786 117.15 20.4757C117.71 20.2609 118.332 20.1535 119.015 20.1535Z" fill="white"/>
<path d="M129.721 20.1535C131.16 20.1535 132.257 20.4936 133.012 21.1739C133.78 21.8423 134.164 22.8568 134.164 24.2174V29.821H132.007V28.6573C131.726 29.075 131.324 29.3973 130.8 29.624C130.288 29.8389 129.666 29.9463 128.935 29.9463C128.204 29.9463 127.564 29.8269 127.015 29.5882C126.467 29.3376 126.04 28.9974 125.735 28.5678C125.443 28.1262 125.297 27.6309 125.297 27.0818C125.297 26.2225 125.62 25.5362 126.266 25.023C126.924 24.4979 127.954 24.2353 129.356 24.2353H131.879V24.0921C131.879 23.4237 131.672 22.9105 131.257 22.5524C130.855 22.1944 130.251 22.0153 129.447 22.0153C128.898 22.0153 128.356 22.0989 127.82 22.266C127.296 22.4331 126.851 22.6658 126.485 22.9642L125.589 21.335C126.101 20.9531 126.717 20.6607 127.436 20.4578C128.155 20.2549 128.917 20.1535 129.721 20.1535ZM129.41 28.3171C129.983 28.3171 130.489 28.1918 130.928 27.9412C131.379 27.6786 131.696 27.3086 131.879 26.8312V25.7212H129.52C128.204 25.7212 127.545 26.1449 127.545 26.9923C127.545 27.3981 127.71 27.7204 128.039 27.9591C128.368 28.1978 128.825 28.3171 129.41 28.3171Z" fill="white"/>
<path d="M137.097 20.2609H139.383V29.821H137.097V20.2609ZM138.249 18.6854C137.835 18.6854 137.487 18.5601 137.207 18.3095C136.927 18.0469 136.787 17.7246 136.787 17.3427C136.787 16.9608 136.927 16.6445 137.207 16.3939C137.487 16.1313 137.835 16 138.249 16C138.664 16 139.011 16.1253 139.291 16.376C139.572 16.6147 139.712 16.919 139.712 17.289C139.712 17.6829 139.572 18.017 139.291 18.2916C139.023 18.5541 138.676 18.6854 138.249 18.6854Z" fill="white"/>
<path d="M147.923 20.1535C149.154 20.1535 150.141 20.5055 150.885 21.2097C151.628 21.9139 152 22.9582 152 24.3427V29.821H149.715V24.6292C149.715 23.7937 149.513 23.1671 149.111 22.7494C148.709 22.3197 148.136 22.1049 147.392 22.1049C146.551 22.1049 145.887 22.3555 145.399 22.8568C144.912 23.3461 144.668 24.0563 144.668 24.9872V29.821H142.383V20.2609H144.558V21.4962C144.936 21.0546 145.412 20.7204 145.985 20.4936C146.557 20.2668 147.204 20.1535 147.923 20.1535Z" fill="white"/>
</svg>
